<?xml version="1.0" standalone="no"?><!DOCTYPE svg PUBLIC "-//W3C//DTD SVG 1.1//EN" "http://www.w3.org/Graphics/SVG/1.1/DTD/svg11.dtd"><svg t="1730122248204" class="icon" viewBox="0 0 1024 1024" version="1.1" xmlns="http://www.w3.org/2000/svg" p-id="8294" xmlns:xlink="http://www.w3.org/1999/xlink" width="128" height="128"><path d="M664.1 441.9c146.44 0 227.68 70.7 227.68 203.05 0 128.85-77.02 199.25-216.24 202.92l-11.43 0.13h-24.07v26.67a21.33 21.33 0 0 1-31.06 19.03l-3.07-1.97-85.33-64a21.33 21.33 0 0 1-3.08-31.31l3.08-2.82 85.33-64a21.33 21.33 0 0 1 33.83 13.44l0.26 3.63v26.66h24.06c107.35 0 153-39.76 153-128.38 0-85.76-42.79-125.78-142.8-128.26l-10.2-0.12H155.1V441.9h509.02zM456.33 773.33V848H155.09v-74.67h301.23z m425.81-668.16v74.67H155.1v-74.67h727.04z" p-id="8295"></path></svg>