<?xml version="1.0" standalone="no"?><!DOCTYPE svg PUBLIC "-//W3C//DTD SVG 1.1//EN" "http://www.w3.org/Graphics/SVG/1.1/DTD/svg11.dtd"><svg t="1730102537434" class="icon" viewBox="0 0 1024 1024" version="1.1" xmlns="http://www.w3.org/2000/svg" p-id="13325" xmlns:xlink="http://www.w3.org/1999/xlink" width="128" height="128"><path d="M0 1024h1024V0H0v1024z" fill="#FFFFFF" opacity=".01" p-id="13326"></path><path d="M512.568889 924.444444c-110.364444 0-214.016-43.008-292.067556-120.945777l40.277334-40.277334a355.328 355.328 0 0 0 606.776889-250.652444c0-196.380444-159.288889-356.124444-354.986667-356.124445-95.118222 0-184.547556 37.091556-251.790222 104.334223-34.929778 34.929778-111.502222 120.604444-111.502223 120.604444l-42.552888-37.888s78.165333-87.381333 113.777777-122.88A410.168889 410.168889 0 0 1 512.568889 99.441778a412.330667 412.330667 0 1 1 0 824.888889z" fill="#30648F" p-id="13327"></path><path d="M298.666667 391.168H99.555556v-199.111111h56.888888v142.222222h142.222223z" fill="#30648F" p-id="13328"></path></svg>