<?xml version="1.0" standalone="no"?><!DOCTYPE svg PUBLIC "-//W3C//DTD SVG 1.1//EN" "http://www.w3.org/Graphics/SVG/1.1/DTD/svg11.dtd"><svg t="1730122146181" class="icon" viewBox="0 0 1024 1024" version="1.1" xmlns="http://www.w3.org/2000/svg" p-id="4230" xmlns:xlink="http://www.w3.org/1999/xlink" width="128" height="128"><path d="M182.419257 0h543.716814a149.522124 149.522124 0 0 1 149.522124 149.522124v45.309734a58.902655 58.902655 0 0 1-117.80531 0v-45.309734a31.716814 31.716814 0 0 0-31.716814-31.716814h-543.716814a31.716814 31.716814 0 0 0-31.716815 31.716814v724.955752a31.716814 31.716814 0 0 0 31.716815 31.716814h543.716814a31.716814 31.716814 0 0 0 31.716814-31.716814v-45.309734a58.902655 58.902655 0 0 1 117.80531 0v45.309734a149.522124 149.522124 0 0 1-149.522124 149.522124h-543.716814A149.522124 149.522124 0 0 1 32.897133 874.477876v-724.955752A149.522124 149.522124 0 0 1 182.419257 0zM984.401558 504.750442l-171.723894-167.646017a22.654867 22.654867 0 0 0-38.513275 16.311504v127.773452H485.994478a45.309735 45.309735 0 0 0 0 90.619469h286.810619v125.054867a22.654867 22.654867 0 0 0 38.966372 15.858407L984.401558 536.920354a22.654867 22.654867 0 0 0 0-32.169912z" fill="#3E2AD1" p-id="4231"></path></svg>