<?xml version="1.0" standalone="no"?><!DOCTYPE svg PUBLIC "-//W3C//DTD SVG 1.1//EN" "http://www.w3.org/Graphics/SVG/1.1/DTD/svg11.dtd"><svg t="1730103367981" class="icon" viewBox="0 0 1047 1024" version="1.1" xmlns="http://www.w3.org/2000/svg" p-id="20004" xmlns:xlink="http://www.w3.org/1999/xlink" width="130.875" height="128"><path d="M924.81 426.78c0-6.81-3.05-13.27-8.31-17.59L785.46 301.45a22.787 22.787 0 0 0-14.46-5.18H487.57c-12.58 0-22.78 10.2-22.78 22.78v584.59c0 12.58 10.2 22.78 22.78 22.78h414.47c12.58 0 22.78-10.2 22.78-22.78l-0.01-476.86z m-49.19 306.15c0 12.58-10.2 22.78-22.78 22.78H533.82c-12.58 0-22.78-10.2-22.78-22.78v-2.71c0-12.58 10.2-22.78 22.78-22.78h319.02c12.58 0 22.78 10.2 22.78 22.78v2.71z m0-121.32c0 12.59-10.2 22.78-22.78 22.78H533.82c-12.58 0-22.78-10.2-22.78-22.78v-2.71c0-12.58 10.2-22.78 22.78-22.78h319.02c12.58 0 22.78 10.2 22.78 22.78v2.71z m0-121.31c0 12.58-10.2 22.78-22.78 22.78H533.82c-12.58 0-22.78-10.2-22.78-22.78v-2.71c0-12.58 10.2-22.78 22.78-22.78h319.02c12.58 0 22.78 10.2 22.78 22.78v2.71zM561.88 228.3c16.57 0 30-13.43 30-30v-70.72c0-16.57-13.43-30-30-30H301.82c-16.57 0-30 13.43-30 30v70.72c0 16.57 13.43 30 30 30h260.06zM704.52 211.23v44.15h60v-94.15c0-16.57-13.43-30-30-30H611.09v60h73.43c11.04 0 20 8.95 20 20zM99.18 319.43h60v127.9h-60zM99.18 511.37h60v127.9h-60zM159.18 781.15v-77.84h-60v127.84c0 16.57 13.43 30 30 30h97.83v-60h-47.83c-11.04 0-20-8.95-20-20zM291.02 801.15h128.02v60H291.02zM99.19 161.23v94.15h60v-44.15c0-11.05 8.95-20 20-20h73.43v-60H129.19c-16.57 0-30 13.43-30 30z" fill="#5473E8" p-id="20005"></path></svg>