<?xml version="1.0" standalone="no"?><!DOCTYPE svg PUBLIC "-//W3C//DTD SVG 1.1//EN" "http://www.w3.org/Graphics/SVG/1.1/DTD/svg11.dtd"><svg t="1730122193411" class="icon" viewBox="0 0 1024 1024" version="1.1" xmlns="http://www.w3.org/2000/svg" p-id="6313" xmlns:xlink="http://www.w3.org/1999/xlink" width="128" height="128"><path d="M866.252745 536.612561c-9.570983-1.307785-18.463514 5.415336-19.722181 14.939247C828.858066 680.025854 742.633263 785.41616 621.396037 826.660516c-176.630836 59.732429-368.828206-34.965349-428.351881-211.573673-1.703805-5.04183-2.030239-9.614985-3.337001-14.656815l109.053741 53.896515c8.589632 4.248767 19.164478 0.723477 23.434735-7.959276 4.247744-8.589632 0.63138-19.138896-7.935739-23.388686l-136.177496-67.317175c-3.197832-7.235798-9.896394-12.278651-17.926278-10.877745-0.723477 0.13917-1.073448 0.839111-1.774413 1.142009l-8.659217-4.270256-81.371262 164.723645c-4.27128 8.636704-0.652869 19.164478 7.935739 23.411199 8.590656 4.227278 19.164478 0.700965 23.435759-7.935739l55.531757-112.461352c1.586125 5.626137 2.730181 11.251252 4.644787 16.945951 32.936133 97.314373 102.354156 172.21834 187.997722 214.537168 85.478813 42.225707 187.273221 51.842739 284.703227 18.930141 133.818775-45.633317 229.033323-161.89932 248.52219-303.469639 1.307785-9.593496-5.204535-18.371416-14.869662-19.724227z m83.587743-253.448386c-8.588609-4.247744-19.138896-0.74599-23.411199 7.912203l-55.553247 112.486934c-1.49505-5.696746-2.661619-11.18269-4.551666-16.947997C800.406061 191.732789 588.390319 87.137593 393.786133 153.195078 259.803629 198.617593 164.520519 314.956252 145.053142 456.689277c-0.980327 7.632841 3.01159 14.774495 9.593496 18.019399a18.24555 18.24555 0 0 0 5.298679 1.635243c9.639544 1.399883 18.46249-5.370311 19.747763-14.987343 17.622356-128.521119 103.917768-233.864352 225.228671-275.015587C581.433884 126.398782 773.469572 221.261313 833.177442 397.866566c1.727341 5.135974 2.031263 9.617032 3.315512 14.753006L727.461725 358.605378c-8.588609-4.247744-19.116383-0.605797-23.38664 8.030907-4.248767 8.589632-0.724501 19.163455 7.866155 23.411199l136.316665 67.388806c3.104711 7.002484 9.68764 12.138458 17.695011 10.784624 0.74599-0.188288 1.119497-0.932232 1.86651-1.121543l8.590656 4.248767 81.370239-164.771741c4.269233-8.682753 0.791016-19.11843-7.939833-23.412222z" fill="#020202" p-id="6314"></path></svg>