<?xml version="1.0" standalone="no"?><!DOCTYPE svg PUBLIC "-//W3C//DTD SVG 1.1//EN" "http://www.w3.org/Graphics/SVG/1.1/DTD/svg11.dtd"><svg t="1730122476751" class="icon" viewBox="0 0 1024 1024" version="1.1" xmlns="http://www.w3.org/2000/svg" p-id="17321" xmlns:xlink="http://www.w3.org/1999/xlink" width="128" height="128"><path d="M218.517333 245.013333l120.661334-120.682666 60.352 60.352-181.013334 181.013333-120.682666-120.682667 60.330666-60.330666 60.352 60.330666zM917.333333 277.333333H448V192h469.333333v85.333333zM218.517333 522.346667l120.661334-120.682667 60.352 60.352-181.013334 181.013333-120.682666-120.682666 60.330666-60.330667 60.352 60.330667zM917.333333 576H448v-85.333333h469.333333v85.333333zM218.517333 799.68l120.661334-120.682667 60.352 60.352-181.013334 181.013334-120.682666-120.682667 60.330666-60.330667 60.352 60.330667zM917.333333 874.666667H448v-85.333334h469.333333v85.333334z" p-id="17322"></path></svg>